# xmcd
#
# Track frame offsets: 
#        150
#        14147
#        26998
#        43127
#        59967
#        76955
#        93140
#        106012
#        124486
#        134839
#        152926
#        169679
#
# Disc length: 2868 seconds
#
# Revision: 2
# Processed by: cddbd v1.5.2PL0 Copyright (c) Steve Scherf et al.
# Submitted via: ExactAudioCopy v0.99pb5
#
DISCID=af0b320c
DTITLE=Slow Club - Yeah So
DYEAR=1900
DGENRE=
TTITLE0=When I Go
TTITLE1=Giving Up On Love
TTITLE2=I Was Unconscious, It Was A Dream
TTITLE3=It Doesn't Have To Be Beautiful
TTITLE4=There Is No Good Way To Say I Am Leaving You
TTITLE5=Trophy Room
TTITLE6=Because We're Dead
TTITLE7=Dance 'Til The Morning Light
TTITLE8=Sorry About The Doom
TTITLE9=Come On Youth
TTITLE10=Apples And Pairs
TTITLE11=Our Most Brilliant Friends
EXTD=
EXTT0=
EXTT1=
EXTT2=
EXTT3=
EXTT4=
EXTT5=
EXTT6=
EXTT7=
EXTT8=
EXTT9=
EXTT10=
EXTT11=
PLAYORDER=
